<?xml version="1.0" standalone="no"?>
<!DOCTYPE svg PUBLIC "-//W3C//DTD SVG 20010904//EN"
 "http://www.w3.org/TR/2001/REC-SVG-20010904/DTD/svg10.dtd">
<svg version="1.0" xmlns="http://www.w3.org/2000/svg"
 width="418.000000pt" height="500.000000pt" viewBox="0 0 418.000000 500.000000"
 preserveAspectRatio="xMidYMid meet">

<g transform="translate(0.000000,500.000000) scale(0.100000,-0.100000)"
fill="#000000" stroke="none">
<path d="M1542 4614 c-35 -17 -74 -50 -115 -97 -178 -203 -191 -213 -362 -283
-131 -53 -185 -89 -227 -149 -32 -46 -43 -95 -57 -261 -14 -155 -28 -199 -102
-319 -91 -147 -113 -199 -113 -270 1 -71 20 -119 104 -254 83 -135 97 -178
110 -326 25 -293 48 -325 315 -433 122 -49 151 -69 237 -164 183 -204 217
-227 326 -228 38 0 111 12 182 30 153 39 222 39 383 0 232 -55 292 -40 423
107 178 199 165 189 428 301 105 44 162 103 185 190 7 23 18 108 26 190 16
167 30 209 110 332 78 120 100 175 100 255 -1 81 -18 126 -96 248 -85 132 -98
171 -114 339 -8 82 -19 168 -25 191 -27 101 -90 153 -270 226 -144 58 -195 94
-289 207 -89 105 -149 160 -198 180 -50 21 -150 17 -259 -12 -158 -41 -244
-42 -400 -5 -165 39 -232 40 -302 5z m296 -544 c34 -22 67 -40 72 -40 24 0 30
-50 30 -262 l0 -223 94 -52 c52 -29 97 -53 100 -53 3 0 6 35 8 77 l3 77 105
59 c58 33 116 65 129 73 27 14 24 15 134 -48 l69 -40 -4 -151 c-4 -175 -13
-202 -96 -282 l-48 -47 51 -101 c70 -143 95 -249 95 -414 l0 -130 -127 -74
c-70 -40 -136 -72 -145 -72 -10 1 -31 11 -47 22 -16 12 -33 21 -38 21 -4 0
-25 11 -46 25 l-37 26 0 108 c0 60 -5 132 -10 162 -15 79 -75 191 -134 251
l-51 52 -5 -71 c-3 -40 -9 -76 -15 -82 -5 -5 -65 -41 -132 -80 l-122 -70 -85
45 c-48 25 -91 54 -96 64 -13 24 -13 1089 -1 1109 10 15 259 160 276 161 6 0
38 -18 73 -40z"/>
<path d="M1522 3384 l3 -537 60 -33 c33 -18 64 -33 68 -34 4 0 8 93 7 208 -1
114 -1 213 -1 220 1 14 33 16 46 3 6 -5 37 -24 70 -42 111 -60 224 -139 265
-187 49 -56 103 -166 119 -240 6 -29 11 -101 11 -160 l0 -107 59 -33 c32 -17
62 -32 66 -32 12 0 -3 249 -19 310 -23 90 -53 162 -97 235 l-42 69 26 20 c14
12 37 29 51 39 15 10 38 41 53 70 26 49 27 60 28 191 l0 139 -50 28 c-27 16
-55 28 -61 29 -8 0 -13 -37 -16 -112 -3 -83 -9 -122 -21 -146 -34 -63 -109
-87 -188 -61 -19 7 -94 46 -166 88 l-133 75 0 231 0 230 -62 35 c-35 19 -66
37 -70 38 -5 2 -7 -238 -6 -534z"/>
<path d="M1255 1447 c-3 -6 -4 -192 -3 -412 l3 -400 33 -3 32 -3 0 175 c0 114
4 176 10 176 12 0 13 -2 34 -95 8 -38 25 -112 36 -162 l22 -93 63 0 63 0 6 63
c3 34 7 78 9 97 2 33 4 35 43 38 39 3 42 1 48 -29 3 -17 6 -59 6 -93 0 -69 9
-85 45 -78 22 4 24 8 19 46 -2 22 -16 180 -29 351 -14 171 -27 338 -31 373
l-6 62 -39 0 c-23 0 -41 -5 -44 -12 -5 -14 -34 -293 -61 -583 -17 -175 -21
-202 -30 -193 -3 3 -27 100 -54 214 l-50 209 26 90 c14 50 37 125 50 168 31
101 31 109 -3 105 -25 -3 -30 -11 -59 -108 -18 -58 -41 -132 -51 -165 l-18
-60 -3 168 -2 167 -31 0 c-16 0 -32 -6 -34 -13z m379 -407 c8 -74 12 -138 9
-142 -2 -5 -17 -8 -33 -8 -16 0 -31 3 -33 8 -4 7 3 87 25 277 11 97 13 103 16
55 2 -30 9 -116 16 -190z"/>
<path d="M1762 1043 c3 -363 5 -418 18 -419 38 -1 40 12 40 254 0 129 2 233 4
231 3 -2 16 -107 31 -232 14 -124 28 -233 31 -240 3 -9 14 -12 28 -10 27 6 26
1 51 218 10 77 23 174 30 215 12 71 13 63 14 -176 l1 -252 25 -4 c13 -3 27 -3
30 0 3 3 5 191 5 419 l0 413 -40 0 c-22 0 -40 -3 -40 -7 0 -7 -41 -340 -66
-530 -3 -24 -9 -43 -13 -43 -4 0 -12 51 -19 113 -26 243 -51 448 -57 457 -3 6
-22 10 -41 10 l-34 0 2 -417z"/>
<path d="M2130 1045 l0 -415 80 0 c44 0 83 -1 88 -2 4 -2 8 12 10 30 l3 32
-61 0 -60 0 2 163 3 162 50 5 c45 5 50 7 50 30 0 23 -4 25 -52 28 l-53 3 0
160 0 159 60 0 60 0 0 30 0 30 -90 0 -90 0 0 -415z"/>
<path d="M2350 1041 l0 -419 26 7 26 7 -2 175 c-1 180 3 209 25 209 14 0 21
-36 50 -239 23 -161 20 -155 91 -152 32 1 62 8 66 14 4 7 8 30 8 53 0 23 3 62
6 88 l7 47 41 -3 41 -3 6 -91 c3 -49 8 -95 12 -100 6 -11 42 -12 52 -2 3 3 -8
169 -24 369 -17 200 -32 384 -33 409 l-3 45 -42 3 c-49 4 -46 16 -68 -213 -9
-88 -22 -216 -30 -285 -7 -69 -17 -164 -21 -213 -3 -48 -10 -90 -15 -93 -5 -3
-9 -3 -9 0 0 3 -14 90 -31 193 l-31 187 24 40 c21 37 23 53 23 171 0 185 -19
215 -134 215 l-61 0 0 -419z m116 334 c13 -20 15 -46 13 -146 -4 -105 -6 -122
-23 -135 -43 -31 -46 -23 -46 146 0 153 1 160 20 160 11 0 27 -11 36 -25z
m249 -293 c8 -96 13 -178 9 -183 -3 -5 -18 -9 -35 -9 -35 0 -35 -6 -14 205 8
83 15 157 16 165 2 37 9 -18 24 -178z"/>
</g>
</svg>
